<svg width="51" height="58" viewBox="0 0 51 58" fill="none" xmlns="http://www.w3.org/2000/svg">
<path fill-rule="evenodd" clip-rule="evenodd" d="M15.8684 34.6109L35.6594 34.4293L35.6931 39.1597L15.9021 39.3413L15.8684 34.6109Z" fill="#FFFEFE"/>
<path fill-rule="evenodd" clip-rule="evenodd" d="M17.79 36.9585L23.6554 43.5108L20.733 46.8827L13.3827 38.6715C12.5625 37.7552 12.5519 36.2577 13.3588 35.3266L20.5913 26.9814L23.5613 30.2993L17.79 36.9585Z" fill="#FFFEFE"/>
<path fill-rule="evenodd" clip-rule="evenodd" d="M34.5 17.8824L14.709 18.064L14.7427 22.7944L34.5337 22.6128L34.5 17.8824Z" fill="#FFFEFE"/>
<path fill-rule="evenodd" clip-rule="evenodd" d="M32.6122 20.265L26.8409 26.9241L29.8109 30.242L37.0434 21.8969C37.8504 20.9658 37.8398 19.4682 37.0196 18.552L29.6693 10.3407L26.7469 13.7126L32.6122 20.265Z" fill="#FFFEFE"/>
</svg>
