<svg width="50" height="44" viewBox="0 0 50 44" fill="none" xmlns="http://www.w3.org/2000/svg">
<rect width="50" height="44" rx="20" fill="#D9D9D9"/>
<path fill-rule="evenodd" clip-rule="evenodd" d="M19.8253 14.4904C20.4649 13.3286 21.5866 12.6228 22.7933 12.6228H32.7537C34.1848 12.6228 35.4718 13.6121 36.0033 15.1207L37.75 20.0782C37.8051 20.2347 37.8334 20.4016 37.8334 20.5701V27.1929C37.8334 27.9244 37.3111 28.5175 36.6667 28.5175H34.3334V25.8684H35.5001V20.8252L33.8369 16.1045C33.6597 15.6017 33.2307 15.2719 32.7537 15.2719H22.7933C22.3911 15.2719 22.0172 15.5072 21.804 15.8945L19.5727 19.9476C19.407 20.2487 19.1418 20.4616 18.8365 20.5386L14.9569 21.5174C14.69 21.5847 14.5001 21.8535 14.5001 22.1639V25.8684H15.6667V28.5175H13.3334C12.6891 28.5175 12.1667 27.9244 12.1667 27.1929V22.1639C12.1667 20.6119 13.1162 19.2681 14.4507 18.9314L17.8532 18.073L19.8253 14.4904ZM20.3334 25.8684H29.6667V28.5175H20.3334V25.8684Z" fill="black"/>
<path fill-rule="evenodd" clip-rule="evenodd" d="M18 25.8683C17.3557 25.8683 16.8333 26.4614 16.8333 27.1929C16.8333 27.9244 17.3557 28.5175 18 28.5175C18.6443 28.5175 19.1667 27.9244 19.1667 27.1929C19.1667 26.4614 18.6443 25.8683 18 25.8683ZM14.5 27.1929C14.5 24.9983 16.067 23.2192 18 23.2192C19.933 23.2192 21.5 24.9983 21.5 27.1929C21.5 29.3875 19.933 31.1666 18 31.1666C16.067 31.1666 14.5 29.3875 14.5 27.1929Z" fill="black"/>
<path fill-rule="evenodd" clip-rule="evenodd" d="M32 25.8683C31.3557 25.8683 30.8333 26.4614 30.8333 27.1929C30.8333 27.9244 31.3557 28.5175 32 28.5175C32.6443 28.5175 33.1667 27.9244 33.1667 27.1929C33.1667 26.4614 32.6443 25.8683 32 25.8683ZM28.5 27.1929C28.5 24.9983 30.067 23.2192 32 23.2192C33.933 23.2192 35.5 24.9983 35.5 27.1929C35.5 29.3875 33.933 31.1666 32 31.1666C30.067 31.1666 28.5 29.3875 28.5 27.1929Z" fill="black"/>
</svg>
