<svg width="50" height="50" viewBox="0 0 50 50" fill="none" xmlns="http://www.w3.org/2000/svg">
<path d="M50 25C50 38.8071 38.8071 50 25 50C11.1929 50 0 38.8071 0 25C0 11.1929 11.1929 0 25 0C38.8071 0 50 11.1929 50 25Z" fill="#FFFEFF"/>
<path d="M18 15H32C32.5523 15 33 15.4477 33 16V35.1433C33 35.4194 32.7761 35.6434 32.5 35.6434C32.4061 35.6434 32.314 35.6168 32.2344 35.5669L25 31.0313L17.7656 35.5669C17.5316 35.7136 17.2231 35.6429 17.0764 35.4089C17.0265 35.3293 17 35.2373 17 35.1433V16C17 15.4477 17.4477 15 18 15ZM31 17H19V32.4324L25 28.6707L31 32.4324V17Z" fill="black"/>
</svg>
