<svg width="50" height="44" viewBox="0 0 50 44" fill="none" xmlns="http://www.w3.org/2000/svg">
<rect width="50" height="44" rx="20" fill="#D9D9D9"/>
<path d="M21.71 17.705L24 15.405V24.995C24 25.2602 24.1054 25.5146 24.2929 25.7021C24.4804 25.8897 24.7348 25.995 25 25.995C25.2652 25.995 25.5196 25.8897 25.7071 25.7021C25.8946 25.5146 26 25.2602 26 24.995V15.405L28.29 17.705C28.383 17.7987 28.4936 17.8731 28.6154 17.9239C28.7373 17.9747 28.868 18.0008 29 18.0008C29.132 18.0008 29.2627 17.9747 29.3846 17.9239C29.5064 17.8731 29.617 17.7987 29.71 17.705C29.8037 17.6121 29.8781 17.5014 29.9289 17.3796C29.9797 17.2577 30.0058 17.127 30.0058 16.995C30.0058 16.863 29.9797 16.7323 29.9289 16.6104C29.8781 16.4886 29.8037 16.378 29.71 16.285L25.71 12.285C25.6149 12.194 25.5028 12.1226 25.38 12.075C25.1365 11.975 24.8635 11.975 24.62 12.075C24.4972 12.1226 24.3851 12.194 24.29 12.285L20.29 16.285C20.1968 16.3783 20.1228 16.4889 20.0723 16.6108C20.0219 16.7326 19.9959 16.8632 19.9959 16.995C19.9959 17.1269 20.0219 17.2574 20.0723 17.3793C20.1228 17.5011 20.1968 17.6118 20.29 17.705C20.3832 17.7983 20.4939 17.8722 20.6158 17.9227C20.7376 17.9731 20.8681 17.9991 21 17.9991C21.1319 17.9991 21.2624 17.9731 21.3842 17.9227C21.5061 17.8722 21.6168 17.7983 21.71 17.705ZM34 21.995C33.7348 21.995 33.4804 22.1004 33.2929 22.2879C33.1054 22.4754 33 22.7298 33 22.995V28.995C33 29.2602 32.8946 29.5146 32.7071 29.7021C32.5196 29.8897 32.2652 29.995 32 29.995H18C17.7348 29.995 17.4804 29.8897 17.2929 29.7021C17.1054 29.5146 17 29.2602 17 28.995V22.995C17 22.7298 16.8946 22.4754 16.7071 22.2879C16.5196 22.1004 16.2652 21.995 16 21.995C15.7348 21.995 15.4804 22.1004 15.2929 22.2879C15.1054 22.4754 15 22.7298 15 22.995V28.995C15 29.7907 15.3161 30.5537 15.8787 31.1163C16.4413 31.6789 17.2044 31.995 18 31.995H32C32.7956 31.995 33.5587 31.6789 34.1213 31.1163C34.6839 30.5537 35 29.7907 35 28.995V22.995C35 22.7298 34.8946 22.4754 34.7071 22.2879C34.5196 22.1004 34.2652 21.995 34 21.995Z" fill="black"/>
</svg>
